<svg width="64" height="64" viewBox="0 0 64 64" fill="none" xmlns="http://www.w3.org/2000/svg">
<path d="M8.67785 60.8524C7.93777 61.5527 6.95369 61.9368 5.93486 61.9229C4.91603 61.9089 3.94282 61.4981 3.22216 60.7778C2.5015 60.0575 2.09024 59.0845 2.07583 58.0656C2.06142 57.0468 2.445 56.0626 3.145 55.3221L20.2861 38.1758L25.819 43.7112L8.67785 60.8524Z" stroke="#666666" stroke-width="2" stroke-linecap="round" stroke-linejoin="round"/>
<path d="M17.5236 35.4062L28.584 46.4746" stroke="#666666" stroke-width="2" stroke-linecap="round" stroke-linejoin="round"/>
<path d="M52.6331 11.3945L23.0568 40.9422" stroke="#666666" stroke-width="2" stroke-linecap="round" stroke-linejoin="round"/>
<path d="M57.5241 12.0678C57.3002 12.3676 57.0145 12.6156 56.6864 12.7952C56.3582 12.9748 55.9953 13.0817 55.6222 13.1086C55.249 13.1356 54.8745 13.082 54.5239 12.9515C54.1733 12.821 53.8549 12.6166 53.5903 12.3522L51.4721 10.2366C51.2017 9.96694 50.9938 9.64119 50.863 9.28237C50.7323 8.92354 50.682 8.54039 50.7156 8.15997C50.7491 7.77955 50.8659 7.41115 51.0574 7.08078C51.249 6.75041 51.5108 6.46614 51.8243 6.24804L57.605 2.2334C57.8561 2.05877 58.1607 1.97798 58.4654 2.00516C58.7701 2.03234 59.0556 2.16576 59.2719 2.38209L61.6196 4.72983C61.8414 4.95238 61.9753 5.24749 61.9969 5.56092C62.0185 5.87435 61.9262 6.18503 61.737 6.43586L57.5241 12.0678Z" stroke="#666666" stroke-width="2" stroke-linecap="round" stroke-linejoin="round"/>
<path d="M30.919 25.7037L21.9454 16.7301C22.6629 15.1409 22.9708 13.3971 22.8407 11.6582C22.7107 9.9193 22.1469 8.24071 21.201 6.77585C20.255 5.31098 18.957 4.10654 17.4256 3.27259C15.8942 2.43865 14.1782 2.0018 12.4344 2.00195C11.7141 2.00168 10.9956 2.07511 10.2901 2.22108C10.06 2.26927 9.84724 2.37875 9.67425 2.53796C9.50127 2.69716 9.37452 2.90016 9.30743 3.12548C9.24035 3.3508 9.23541 3.59007 9.29314 3.81797C9.35086 4.04586 9.46912 4.25392 9.63539 4.42013L13.3579 8.14261C13.6017 8.38705 13.7386 8.71819 13.7387 9.06345V12.4364C13.7387 12.7823 13.6013 13.1141 13.3567 13.3587C13.1121 13.6033 12.7803 13.7407 12.4344 13.7407H9.06149C8.71624 13.7406 8.3851 13.6036 8.14066 13.3598L4.41818 9.63734C4.25197 9.47107 4.04391 9.35282 3.81601 9.29509C3.58811 9.23736 3.34885 9.2423 3.12353 9.30939C2.89821 9.37648 2.69521 9.50322 2.536 9.67621C2.3768 9.84919 2.26731 10.062 2.21912 10.2921C2.07315 10.9975 1.99973 11.716 2 12.4364C1.99984 14.1801 2.4367 15.8961 3.27064 17.4275C4.10459 18.9589 5.30903 20.2569 6.77389 21.2029C8.23876 22.1489 9.91734 22.7126 11.6562 22.8427C13.3951 22.9727 15.1389 22.6649 16.7282 21.9473L25.7018 30.9209" stroke="#666666" stroke-width="2" stroke-linecap="round" stroke-linejoin="round"/>
<path d="M38.2959 33.0801L47.2695 42.0537C48.8588 41.3361 50.6026 41.0283 52.3415 41.1584C54.0804 41.2884 55.759 41.8522 57.2238 42.7981C58.6887 43.7441 59.8931 45.0421 60.7271 46.5735C61.561 48.1049 61.9979 49.8209 61.9977 51.5647C61.998 52.285 61.9246 53.0035 61.7786 53.7089C61.7304 53.939 61.6209 54.1518 61.4617 54.3248C61.3025 54.4978 61.0995 54.6245 60.8742 54.6916C60.6489 54.7587 60.4096 54.7637 60.1817 54.7059C59.9538 54.6482 59.7458 54.53 59.5796 54.3637L55.8571 50.6412C55.6126 50.3974 55.2815 50.2604 54.9362 50.2604H51.5633C51.2174 50.2604 50.8856 50.3978 50.641 50.6424C50.3964 50.887 50.259 51.2187 50.259 51.5647V54.9376C50.2591 55.2828 50.396 55.614 50.6399 55.8584L54.3623 59.5809C54.5286 59.7471 54.6469 59.9552 54.7046 60.1831C54.7623 60.411 54.7574 60.6502 54.6903 60.8755C54.6232 61.1009 54.4965 61.3039 54.3235 61.4631C54.1505 61.6223 53.9377 61.7318 53.7076 61.78C53.0022 61.9259 52.2837 61.9993 51.5633 61.9991C49.8196 61.9992 48.1036 61.5624 46.5722 60.7284C45.0407 59.8945 43.7427 58.6901 42.7968 57.2252C41.8508 55.7603 41.2871 54.0817 41.157 52.3428C41.027 50.6039 41.3348 48.8602 42.0523 47.2709L33.0787 38.2973" stroke="#666666" stroke-width="2" stroke-linecap="round" stroke-linejoin="round"/>
</svg>
