<svg width="113" height="40" viewBox="0 0 113 40" fill="none" xmlns="http://www.w3.org/2000/svg">
<g clip-path="url(#clip0_4909_79733)">
<path d="M0.506836 36.4559H2.04052V28.6661H0.506836V36.4559ZM0.506836 27.0129H2.04052V25.4857H0.506836V27.0129ZM12.6257 28.4139C12.1252 28.4153 11.6362 28.5675 11.2197 28.8516C10.8033 29.1356 10.4779 29.5389 10.2841 30.0111C10.1386 29.5289 9.84011 29.11 9.43588 28.8208C9.03164 28.5315 8.54471 28.3884 8.05205 28.4139C7.55923 28.4009 7.07367 28.5377 6.65686 28.8071C6.24005 29.0764 5.91069 29.4662 5.71041 29.927V28.526H4.34104C4.40247 29.1216 4.4299 29.7204 4.4232 30.3193V36.3579H5.95688V32.0847C5.95688 30.8798 6.40877 29.5908 7.66859 29.5908C8.92841 29.5908 9.03795 30.3754 9.03795 31.3281V36.3579H10.5716V32.0847C10.5716 30.8798 11.0236 29.5908 12.2697 29.5908C13.5158 29.5908 13.6391 30.3754 13.6391 31.3281V36.3579H15.1864V31.132C15.0221 29.6188 14.269 28.456 12.5984 28.456L12.6257 28.4139ZM84.0381 31.3842C84.0381 27.7554 80.2313 28.2318 78.4511 28.9743L78.5469 30.1792C79.0159 29.8802 79.5412 29.6857 80.0887 29.6084C80.6361 29.5312 81.1933 29.5729 81.7239 29.7309C82.6961 30.1793 82.5455 31.6504 82.5318 31.6504C79.5466 31.5103 77.6432 32.3509 77.6432 34.3824C77.6432 37.0864 81.4911 37.3106 82.5866 35.209V36.4559H84.0381C83.9681 35.875 83.9361 35.2899 83.9422 34.7046L84.0381 31.3842ZM81.1351 35.4612C80.2998 35.6714 79.2042 35.4612 79.1495 34.2983C79.0673 32.3228 82.5318 32.6171 82.5318 32.6171C82.5318 34.0321 82.2032 35.195 81.0803 35.4612H81.1351ZM23.0055 31.3842C23.0055 27.7554 19.1986 28.2318 17.4185 28.9743L17.5143 30.1792C17.9805 29.8797 18.5036 29.6849 19.0489 29.6076C19.5942 29.5303 20.1493 29.5723 20.6776 29.7309C21.6635 30.1793 21.4992 31.6504 21.4992 31.6504C18.514 31.5103 16.6106 32.3509 16.6106 34.3824C16.6106 37.0864 20.4585 37.3106 21.554 35.209V36.4559H23.0602C22.9902 35.875 22.9583 35.2899 22.9645 34.7046L23.0055 31.3842ZM20.1024 35.4612C19.2671 35.6714 18.1716 35.4612 18.1169 34.2983C18.021 32.3228 21.4992 32.6171 21.4992 32.6171C21.4992 34.0321 21.1706 35.195 20.0477 35.4612H20.1024ZM99.7584 29.857C99.5341 29.4114 99.1884 29.0419 98.7631 28.7933C98.3377 28.5446 97.8511 28.4274 97.362 28.456C95.0889 28.456 94.2262 30.4174 94.2262 32.505C94.2262 34.5925 95.0889 36.4559 97.3347 36.4559C97.8117 36.4397 98.2774 36.3033 98.6906 36.0589C99.1038 35.8145 99.4518 35.4697 99.7037 35.0549C99.7037 36.4559 99.8543 38.7397 97.2114 38.7817C96.4156 38.7909 95.63 38.5984 94.9246 38.2213L94.8287 39.6223C97.4442 40.449 101.237 40.4209 101.237 36.0496V28.6661H99.7584V29.857ZM97.7865 35.181C96.2391 35.181 95.8694 33.6819 95.8694 32.4629C95.8694 31.244 96.2254 29.6608 97.8002 29.6608C99.375 29.6608 99.7447 31.2721 99.7447 32.4629C99.7447 33.6538 99.2244 35.237 97.7318 35.237L97.7865 35.181ZM30.1672 29.857C29.943 29.4114 29.5973 29.0419 29.172 28.7933C28.7467 28.5446 28.2599 28.4274 27.7709 28.456C25.4977 28.456 24.6213 30.4174 24.6213 32.505C24.6213 34.5925 25.4978 36.4559 27.7298 36.4559C28.2092 36.4419 28.6777 36.3066 29.0935 36.0622C29.5093 35.8177 29.8594 35.4716 30.1125 35.0549C30.1125 36.4559 30.2631 38.7397 27.6065 38.7817C26.8151 38.7909 26.0339 38.5983 25.3334 38.2213L25.2376 39.6223C27.8531 40.449 31.6325 40.4209 31.6325 36.0496V28.6661H30.1672V29.857ZM28.1954 35.181C26.648 35.181 26.2783 33.6819 26.2783 32.4629C26.2783 31.244 26.6343 29.6608 28.2091 29.6608C29.7838 29.6608 30.1536 31.2721 30.1536 32.4629C30.1536 33.6538 29.6195 35.237 28.1406 35.237L28.1954 35.181ZM33.9057 36.3999H35.4256V28.6661H33.9057V36.3999ZM33.9057 26.9568H35.4256V25.4297H33.9057V26.9568ZM106.331 28.3579C105.841 28.3825 105.361 28.5078 104.919 28.7264C104.477 28.9449 104.083 29.2523 103.759 29.6302C103.436 30.008 103.19 30.4486 103.037 30.9257C102.884 31.4027 102.826 31.9065 102.867 32.4069C102.867 36.526 106.058 37.1144 109.139 36.1057L109.043 34.8728C106.92 35.9235 104.537 35.5733 104.455 32.8413H109.536C109.536 32.8413 109.892 28.456 106.277 28.456L106.331 28.3579ZM104.428 31.8745C104.428 30.8658 105.044 29.4507 106.345 29.4507C107.646 29.4507 108.057 30.7537 108.057 31.8745H104.428ZM49.2973 28.3579C48.8064 28.3805 48.3251 28.5046 47.8823 28.7225C47.4395 28.9405 47.0443 29.2478 46.7207 29.6261C46.397 30.0044 46.1515 30.4458 45.9989 30.9237C45.8464 31.4016 45.7898 31.9061 45.8328 32.4069C45.8328 36.526 49.0234 37.1144 52.0908 36.1057L52.0086 34.8728C49.8861 35.9235 47.5034 35.5733 47.4076 32.8413H52.488C52.488 32.8413 52.844 28.456 49.2426 28.456L49.2973 28.3579ZM47.3939 31.8745C47.3939 30.8658 48.0101 29.4507 49.311 29.4507C50.6119 29.4507 51.0227 30.7537 51.0227 31.8745H47.3939ZM54.3777 36.3579H56.0209V34.8307H54.3777V36.3579ZM67.6057 30.0672L67.7016 28.8202C64.7849 27.8255 61.4299 28.9744 61.4299 32.533C61.4299 36.54 65.2778 37.1845 67.7016 36.3439V35.0969C65.6476 36.0216 63.1416 35.2511 63.1416 32.533C63.1416 29.815 65.6475 29.1285 67.6057 30.0672ZM73.4667 28.484C72.9813 28.4556 72.4983 28.5732 72.0774 28.8221C71.6565 29.0711 71.3159 29.4405 71.0976 29.885V25.4577H69.5639V36.4279H71.0976V32.3228C71.0976 31.1039 71.5632 29.6608 72.9599 29.6608C74.3567 29.6608 74.48 30.6836 74.48 31.8045V36.4279H76.0274V31.4682C75.9726 29.7169 75.2605 28.456 73.4118 28.456L73.4667 28.484ZM90.0085 28.484C89.4987 28.4751 88.9966 28.612 88.5587 28.8794C88.1208 29.1467 87.7645 29.5338 87.53 29.9971V28.5961H86.0922C86.0922 29.1845 86.1606 29.801 86.1606 30.3894V36.4279H87.6943V32.2248C87.6943 30.9779 88.1462 29.6608 89.5567 29.6608C90.9671 29.6608 91.0767 30.6976 91.0767 31.8045V36.4279H92.6241V31.4682C92.5282 29.7029 91.8572 28.456 89.9538 28.456L90.0085 28.484ZM41.6289 28.484C41.1168 28.4725 40.6117 28.6081 40.1711 28.8756C39.7306 29.1431 39.3722 29.5317 39.1367 29.9971V28.5961H37.7673C37.8287 29.1917 37.8561 29.7905 37.8495 30.3894V36.4279H39.3831V32.2248C39.3831 30.9779 39.8213 29.6608 41.2455 29.6608C42.6696 29.6608 42.7654 30.6976 42.7654 31.8045V36.4279H44.2991V31.4682C44.1348 29.7029 43.4638 28.456 41.5878 28.456L41.6289 28.484ZM111.467 34.8588V36.484H113.11V34.8307L111.467 34.8588Z" fill="#64666A"/>
<path d="M50.2557 16.9667C45.4903 16.9667 42.642 14.0525 42.642 10.1156C42.642 6.17864 45.4903 3.26443 50.2557 3.26443C52.2176 3.17353 54.1682 3.61329 55.9111 4.53939L57.7323 1.73729C55.1256 0.52798 52.2807 -0.047481 49.4203 0.0560113C41.8203 0.0560113 36.2197 3.81083 36.2197 10.1716C36.2197 16.5464 41.8203 20.2872 49.4203 20.2872C52.3763 20.3922 55.3065 19.6911 57.9104 18.2557L56.1302 15.7618C54.2858 16.6113 52.2776 17.0232 50.2557 16.9667ZM71.7136 0C64.3464 0 59.047 3.75482 59.047 10.1156C59.047 16.4764 64.2916 20.2592 71.7136 20.2592C79.1355 20.2592 84.3939 16.5184 84.3939 10.1436C84.3939 3.76881 79.026 0 71.7136 0ZM71.7136 17.0788C67.6055 17.0788 65.4282 13.9685 65.4282 10.0736C65.4282 6.17864 67.6603 3.06831 71.7136 3.06831C75.7669 3.06831 78.0126 6.19265 78.0126 10.0736C78.0126 13.9545 75.7121 17.0788 71.7136 17.0788ZM103.551 0.504358V7.83187H94.2397V0.504358H88.146V19.7268H94.2122V11.5867H103.524V19.7268H109.604V0.504358H103.551ZM26.1959 19.7128H32.6045V0.504358H26.1959V19.7128ZM14.1728 11.3064C17.4867 11.1663 21.184 9.79333 21.184 5.89841C21.184 0.910671 15.9667 0 10.6947 0C6.39487 0 2.47846 0.196116 0.0546875 0.406274V19.6707H5.98406V3.36251C7.53787 3.17023 9.10221 3.08131 10.6673 3.09631C13.7483 3.09631 15.3094 4.1471 15.3094 5.89841C15.3094 7.45358 14.6658 9.317 7.76422 9.24695V11.0823C10.8793 13.5779 13.6764 16.4632 16.09 19.6707H23.2654C20.596 16.4924 17.5191 13.6977 14.1181 11.3625L14.1728 11.3064Z" fill="#CF122E"/>
</g>
<defs>
<clipPath id="clip0_4909_79733">
<rect width="113" height="40" fill="white"/>
</clipPath>
</defs>
</svg>
