<svg width="78" height="40" viewBox="0 0 78 40" fill="none" xmlns="http://www.w3.org/2000/svg">
<g clip-path="url(#clip0_5495_4118)">
<path fill-rule="evenodd" clip-rule="evenodd" d="M14.212 0H0.460114C-0.109313 0 -0.0474513 0.31023 0.104819 0.455006C0.64728 0.967287 0.959734 1.81048 0.959734 4.06325V23.1259C0.959734 24.1934 0.652039 25.2227 0.104819 25.6602C-0.033176 25.7716 -0.109313 26.077 0.460114 26.077H8.25441C8.82543 26.077 8.74772 25.7716 8.60973 25.6602C8.06251 25.2227 7.75479 24.1934 7.75479 23.1259V2.95119C7.75414 2.91536 7.76675 2.88057 7.79019 2.85354C7.81362 2.8265 7.84621 2.80914 7.88167 2.80482C8.76398 2.69845 9.65144 2.64056 10.5401 2.63141C14.4451 2.63141 17.9648 3.80075 17.9648 9.5838V9.77312C17.9648 11.9607 17.5841 13.2589 16.5801 14.4537C15.4302 15.8235 14.1501 16.4598 12.2452 16.8973C11.8708 16.9832 11.7122 17.1248 11.7344 17.3253C11.7566 17.5258 11.9739 17.6339 12.3498 17.6339C16.3358 17.4494 19.0973 16.8862 21.6986 14.9516C23.8304 13.3607 24.6583 11.4388 24.6583 9.13198C24.6636 7.95522 24.4545 6.78739 24.0413 5.68601C22.5535 1.70071 17.9251 0 14.212 0ZM23.4455 33.0437C23.0735 32.8241 22.6495 32.7087 22.2178 32.7096C20.8458 32.7096 19.9306 33.7008 19.9306 35.0403C19.9306 36.4419 20.9378 37.3774 22.175 37.3774C22.6239 37.3808 23.0677 37.2812 23.4725 37.0863L23.5232 37.9136C23.088 38.0673 22.6282 38.1385 22.1671 38.1236C20.2843 38.1236 19.0313 36.916 19.0313 35.0181C19.0313 33.1789 20.362 31.9555 22.175 31.9555C22.6345 31.9481 23.0904 32.037 23.5137 32.2164L23.4455 33.0437ZM4.95348 32.0586H5.85283L8.36211 38.0246H7.43263L6.83147 36.5212H3.91455L3.31024 38.0246H2.41406L4.95348 32.0586ZM5.37064 32.8636L4.18579 35.8212H6.5539L5.37064 32.8636ZM12.0563 32.0586H13.5139C14.6861 32.0586 15.8202 32.2463 15.8202 33.675C15.8202 34.402 15.2841 34.9127 14.5941 35.0321V35.0575C14.8542 35.1593 14.9859 35.2882 15.1731 35.6557L16.2976 38.0294H15.3253L14.4165 35.9612C14.15 35.3805 13.8692 35.3805 13.4156 35.3805H12.9064V38.0294H12.0547L12.0563 32.0586ZM12.908 34.6264H13.6329C14.4402 34.6264 14.9177 34.2652 14.9177 33.6925C14.9177 33.1548 14.5085 32.8127 13.7249 32.8127H12.908V34.6264ZM17.9901 32.0586H17.1367V38.0246H17.9901V32.0586ZM29.7844 35.0399C29.7844 33.2756 28.7343 31.9551 26.9293 31.9551C25.1179 31.9551 24.0679 33.2756 24.0742 35.0399C24.0742 36.8504 25.1211 38.1231 26.9293 38.1231C28.7375 38.1231 29.7844 36.8536 29.7844 35.0399ZM28.885 35.0399C28.885 36.2299 28.3013 37.377 26.9293 37.377C25.5541 37.377 24.9688 36.257 24.9688 35.0399C24.9688 33.8228 25.6207 32.7155 26.9293 32.7092C28.2379 32.7028 28.885 33.8499 28.885 35.0399ZM30.8672 32.0586H31.7189V34.558H34.5629V32.0586H35.4131V38.0246H34.5629V35.3057H31.7189V38.0246H30.8672V32.0586ZM42.3171 32.7097C42.7473 32.7081 43.17 32.8235 43.54 33.0438L43.6066 32.2165C43.1851 32.0366 42.7306 31.9477 42.2727 31.9556C40.4565 31.9556 39.1289 33.179 39.1289 35.0181C39.1289 36.9161 40.3867 38.1236 42.2631 38.1236C42.7232 38.1389 43.1821 38.0676 43.6161 37.9136L43.5654 37.0863C43.162 37.2804 42.72 37.38 42.2727 37.3775C41.037 37.3775 40.033 36.442 40.033 35.0404C40.033 33.7008 40.9419 32.7097 42.3171 32.7097ZM46.318 33.5645C47.6425 33.5645 48.5275 34.519 48.5275 35.8459C48.5275 37.0947 47.6234 38.1241 46.318 38.1241C45.0126 38.1241 44.1133 37.0947 44.1133 35.8459C44.1133 34.5222 44.9952 33.5645 46.318 33.5645ZM46.318 37.4766C47.2602 37.4766 47.6758 36.6238 47.6758 35.8459C47.6758 35.0186 47.1745 34.2136 46.318 34.2136C45.4615 34.2136 44.965 35.0186 44.965 35.8459C44.965 36.6238 45.3759 37.4766 46.318 37.4766ZM50.1728 33.665H49.4258L49.4432 38.0258H50.2363V35.8287C50.2363 35.0189 50.5662 34.2139 51.3783 34.2139C52.0239 34.2139 52.1539 34.8884 52.1539 35.4262V38.0258H52.947V35.8287C52.947 35.0189 53.2722 34.2139 54.0906 34.2139C54.741 34.2139 54.8679 34.8884 54.8679 35.4262V38.0258H55.6609V35.2289C55.6609 34.2839 55.2612 33.5648 54.1509 33.5648C53.8714 33.5706 53.5987 33.6526 53.362 33.802C53.1254 33.9514 52.9337 34.1625 52.8074 34.4127C52.7154 34.1595 52.5466 33.9415 52.3247 33.7894C52.1028 33.6373 51.8389 33.5588 51.5703 33.5648C50.931 33.5648 50.498 33.7971 50.1919 34.3014H50.1728V33.665ZM56.8398 33.664H57.6044V34.2829H57.6171C57.7855 34.0507 58.0083 33.8636 58.2658 33.7382C58.5234 33.6128 58.8077 33.5529 59.0938 33.5637C60.3627 33.5637 60.967 34.5963 60.967 35.7688C60.967 36.9413 60.415 38.1234 59.1049 38.1234C58.3356 38.1234 57.9041 37.8275 57.652 37.425H57.6424V39.8114H56.8398V33.664ZM58.9272 34.2129C58.0548 34.2129 57.6424 35.0401 57.6424 35.8547C57.6424 36.5818 58.0184 37.4759 58.9114 37.4759C59.7726 37.4759 60.1327 36.5118 60.1121 35.8277C60.1374 35.0401 59.7885 34.2129 58.9272 34.2129ZM63.5005 33.5645C62.9963 33.5686 62.5028 33.7105 62.073 33.9749L62.1158 34.6638C62.4722 34.3757 62.9159 34.218 63.3736 34.2167C64.1746 34.2167 64.4443 34.6002 64.4443 35.3543C64.1302 35.3368 63.9129 35.3368 63.5957 35.3368C62.7693 35.3368 61.5781 35.6756 61.5781 36.7686C61.5781 37.7168 62.2332 38.1241 63.1643 38.1241C63.4252 38.1332 63.6844 38.0776 63.9187 37.9621C64.1531 37.8467 64.3554 37.675 64.5077 37.4622H64.5299V38.0254H65.2754C65.2495 37.7409 65.2394 37.4552 65.2453 37.1695V35.3654C65.2453 34.1833 64.7441 33.5645 63.5005 33.5645ZM64.1961 35.9412C64.2805 35.946 64.3654 35.9509 64.4522 35.9509V36.3343C64.4522 36.985 64.0319 37.4766 63.2483 37.4766C62.8756 37.4766 62.4331 37.23 62.4331 36.7686C62.4331 36.0002 63.5069 35.9318 63.9447 35.9318C64.0291 35.9318 64.1123 35.9365 64.1959 35.9412L64.1961 35.9412ZM66.4375 33.6647H67.2163V34.3599H67.2258C67.4701 33.862 68.0474 33.5645 68.6533 33.5645C69.7795 33.5645 70.2823 34.2661 70.2823 35.4354V38.0254H69.4797V35.7695C69.4797 34.7513 69.2608 34.2581 68.5613 34.2136C67.6541 34.2136 67.2401 34.9502 67.2401 36.0081V38.0254H66.447L66.4375 33.6647ZM71.5288 39.2705C71.4025 39.2672 71.2773 39.2447 71.1577 39.2037L71.0974 39.8608C71.2767 39.9 71.4596 39.9198 71.6431 39.9196C72.6682 39.9196 72.9945 39.0062 73.2877 38.1858L73.3117 38.1187L74.9121 33.6641H74.1016L72.9088 37.2707H72.8929L71.7303 33.6641H70.8516L72.3219 37.7353C72.3909 37.8819 72.4441 38.0355 72.4805 38.1935C72.4805 38.281 72.2442 39.2705 71.5288 39.2705ZM27.4612 0H48.8504C48.8504 0 49.6419 3.60506 49.7402 4.09984C49.8306 4.52144 49.7244 4.65349 49.5309 4.63439C49.3925 4.62074 49.2161 4.49893 49.0253 4.36723L49.0252 4.36719C48.9492 4.31469 48.8708 4.26062 48.7917 4.2112C46.2526 2.63184 42.1791 2.77554 38.9198 2.89051C38.3574 2.91034 37.8193 2.92933 37.3176 2.93846C36.469 2.95436 35.3523 2.94005 34.6211 2.87959C34.6016 2.87781 34.582 2.88041 34.5637 2.88718C34.5453 2.89395 34.5287 2.90474 34.5151 2.91876C34.5014 2.93277 34.491 2.94966 34.4846 2.96821C34.4783 2.98675 34.4762 3.00648 34.4784 3.02596V23.1259C34.4784 24.1934 34.7861 25.2227 35.3333 25.6602C35.4713 25.7716 35.5474 26.077 34.9764 26.077H27.4612C26.8902 26.077 26.9664 25.7716 27.1059 25.6602C27.6516 25.2227 27.9593 24.1934 27.9593 23.1259V4.06325C27.9593 1.81048 27.6468 0.967287 27.1059 0.455006C26.9521 0.31023 26.8902 0 27.4612 0ZM44.9444 7.45324L36.1461 12.4536C36.0164 12.527 35.9085 12.6337 35.8334 12.7627C35.7583 12.8917 35.7188 13.0384 35.7188 13.1878C35.7188 13.3372 35.7583 13.4838 35.8334 13.6128C35.9085 13.7419 36.0164 13.8485 36.1461 13.922L44.9444 18.8746C45.0721 18.9469 45.2165 18.9843 45.3631 18.9832C45.5097 18.9821 45.6535 18.9425 45.7801 18.8683C45.9067 18.7941 46.0117 18.6879 46.0847 18.5603C46.1576 18.4328 46.1959 18.2882 46.1959 18.1412V8.18667C46.1955 8.03977 46.1568 7.89553 46.0838 7.76823C46.0107 7.64092 45.9058 7.53497 45.7793 7.46086C45.6529 7.38676 45.5093 7.34707 45.3629 7.34574C45.2164 7.3444 45.0722 7.38146 44.9444 7.45324ZM76.3395 22.8729C76.3395 24.0661 76.6012 25.0397 77.1723 25.6093C77.3436 25.7763 77.2991 26.0484 76.9153 26.0293C75.4425 25.9529 73.4171 26.0947 71.2159 26.2489C67.8699 26.4832 64.1174 26.7459 61.2807 26.3141C53.8337 25.1782 53.1406 21.6081 53.1406 16.8766V4.06325C53.1406 1.81048 52.8265 0.967287 52.2856 0.455005C52.1318 0.31023 52.0699 0 52.6409 0H59.8912V19.9822C59.8912 21.9661 61.1157 23.8752 66.3056 23.8752C67.3102 23.8763 68.3137 23.805 69.3081 23.662C69.5635 23.627 69.5937 23.5856 69.5937 23.2356V4.06325C69.5937 1.81048 69.2812 0.967287 68.7403 0.455005C68.5864 0.31023 68.5246 0 69.0956 0H76.3395V22.8729Z" fill="white"/>
</g>
<defs>
<clipPath id="clip0_5495_4118">
<rect width="77.2676" height="39.9196" fill="white"/>
</clipPath>
</defs>
</svg>
