<svg width="24" height="24" viewBox="0 0 24 24" fill="none" xmlns="http://www.w3.org/2000/svg">
<path d="M17.25 18H6.54375L3.92813 3.61875C3.89752 3.44653 3.80768 3.29042 3.67415 3.17743C3.54062 3.06444 3.37179 3.00168 3.19687 3H1.5" stroke="#333333" stroke-linecap="round" stroke-linejoin="round"/>
<path d="M7.5 21.75C8.53553 21.75 9.375 20.9105 9.375 19.875C9.375 18.8395 8.53553 18 7.5 18C6.46447 18 5.625 18.8395 5.625 19.875C5.625 20.9105 6.46447 21.75 7.5 21.75Z" stroke="#333333" stroke-linecap="round" stroke-linejoin="round"/>
<path d="M17.25 21.75C18.2855 21.75 19.125 20.9105 19.125 19.875C19.125 18.8395 18.2855 18 17.25 18C16.2145 18 15.375 18.8395 15.375 19.875C15.375 20.9105 16.2145 21.75 17.25 21.75Z" stroke="#333333" stroke-linecap="round" stroke-linejoin="round"/>
<path d="M5.85938 14.25H17.6344C17.985 14.2511 18.3247 14.1285 18.5939 13.9039C18.8631 13.6793 19.0445 13.367 19.1063 13.0219L20.25 6.75H4.5" stroke="#333333" stroke-linecap="round" stroke-linejoin="round"/>
</svg>
